# xmcd
# 
# Track frame offsets:
#     150
#     15589
#     31869
#     50022
#     69120
#     81589
#     98967
#     114265
#     129990
#     145825
#     161791
#     179988
#     197677
# 
# Disc length: 2832
# 
# Revision: 1
# Processed by: cddbd v1.5.2PL0 Copyright (c) Steve Scherf et al.
# Submitted via: fre:ac v1.0.17
# 
DISCID=b20b0e0d
DTITLE=Midnight Flyer - Midnight Flyer
DYEAR=1981
DGENRE=Swan Song
TTITLE0=Hey Boy
TTITLE1=Love Games
TTITLE2=French Kisses
TTITLE3=In My Eyes
TTITLE4=Over And Over
TTITLE5=Last Resort
TTITLE6=Do You Want My Love
TTITLE7=Sweet Loving Woman
TTITLE8=What Ever I Want
TTITLE9=Midnight Love
TTITLE10=Rough Trade
TTITLE11=Rock 'n' Roll Party
TTITLE12=Waiting For You
EXTD=
EXTT0=
EXTT1=
EXTT2=
EXTT3=
EXTT4=
EXTT5=
EXTT6=
EXTT7=
EXTT8=
EXTT9=
EXTT10=
EXTT11=
EXTT12=
PLAYORDER=
